#!Matlab matrix to amc conversion
:FULLY-SPECIFIED
:DEGREES
16
root 9.192140 16.357400 -29.724600 1.891611 1.634016 0.013523
lowerback -2.363770 1.755846 4.505079
upperback -3.722467 2.364516 2.527513
thorax -2.303462 1.111419 0.206677
lowerneck -16.521033 1.039675 1.506250
upperneck 38.771145 2.620711 -3.619477
head 17.513326 0.852483 -1.480003
rclavicle -0.000000 0.000000
rhumerus -39.357457 -13.474986 -71.488131
rradius 26.008214
rwrist -7.957110
rhand -5.624565 11.550929
rfingers 7.125020
rthumb 20.195139 -17.367554
lclavicle -0.000000 0.000000
lhumerus -55.677642 29.964333 56.210719
lradius 24.717265
lwrist -11.109307
lhand 0.407585 21.723924
lfingers 7.125020
lthumb 25.970951 49.793028
rfemur -21.563284 14.238850 26.360233
rtibia 28.133026
rfoot -20.126056 -17.335386
rtoes -6.640275
lfemur -27.181227 2.193299 -18.974086
ltibia 58.265981
lfoot -13.546918 16.448660
ltoes -9.470450
17
root 9.191770 16.245600 -29.440800 1.868361 1.634016 0.012521
lowerback -1.903635 1.975542 4.505583
upperback -3.697914 2.682949 2.331095
thorax -2.474257 1.264745 -0.027126
lowerneck -16.672032 1.062407 1.700537
upperneck 38.781998 2.638655 -3.715067
head 17.570627 0.877069 -1.555237
rclavicle -0.000000 0.000000
rhumerus -38.400815 -11.921792 -72.664386
rradius 27.598791
rwrist -9.703653
rhand -5.939383 11.551904
rfingers 7.125020
rthumb 19.891538 -17.379398
lclavicle -0.000000 0.000000
lhumerus -58.124363 31.586035 53.378976
lradius 22.699396
lwrist -13.924275
lhand 1.451619 21.555978
lfingers 7.125020
lthumb 26.970130 49.455062
rfemur -20.129837 14.658384 26.662762
rtibia 28.283772
rfoot -20.822634 -17.833776
rtoes -5.705705
lfemur -31.111218 2.593253 -19.244716
ltibia 58.299116
lfoot -15.456373 16.023162
ltoes -10.806881
18
root 9.208550 16.156600 -29.151500 1.804211 1.634016 0.010669
lowerback -1.427478 2.199645 4.461633
upperback -3.666875 3.015388 2.110332
thorax -2.656853 1.425101 -0.274376
lowerneck -16.820336 1.086191 1.894002
upperneck 38.779438 2.657539 -3.813815
head 17.621022 0.902494 -1.629837
rclavicle -0.000000 0.000000
rhumerus -37.348815 -10.209060 -73.974083
rradius 29.247965
rwrist -11.575990
rhand -6.269211 11.607067
rfingers 7.125020
rthumb 19.573642 -17.344322
lclavicle -0.000000 0.000000
lhumerus -60.646725 33.227088 50.481904
lradius 20.565133
lwrist -16.886191
lhand 2.494361 21.388061
lfingers 7.125020
lthumb 27.968026 49.115776
rfemur -18.638993 15.081359 26.978261
rtibia 28.496962
rfoot -21.538275 -18.354152
rtoes -4.535717
lfemur -35.275055 3.051930 -19.602435
ltibia 57.906495
lfoot -17.585238 15.620934
ltoes -12.660899
19
root 9.222000 16.080900 -28.855000 1.298336 1.634016 -0.100370
lowerback -1.325207 2.285581 4.003254
upperback -3.276630 3.134149 1.990884
thorax -2.355918 1.498301 -0.212235
lowerneck -16.816413 0.982389 1.706489
upperneck 38.486221 2.574964 -3.837979
head 17.439325 0.838997 -1.614565
rclavicle -0.000000 0.000000
rhumerus -36.172188 -10.189567 -73.649918
rradius 30.348842
rwrist -12.890452
rhand -6.546243 11.903229
rfingers 7.125020
rthumb 19.304875 -17.068760
lclavicle -0.000000 0.000000
lhumerus -60.179011 33.316280 50.724169
lradius 20.898582
lwrist -16.056533
lhand 2.277573 21.148479
lfingers 7.125020
lthumb 27.759735 48.923060
rfemur -14.270464 14.770001 27.447508
rtibia 25.218036
rfoot -20.077624 -19.165032
rtoes -3.366099
lfemur -35.955451 0.979242 -18.967702
ltibia 49.663124
lfoot -18.125541 16.000044
ltoes -14.611113
20
root 9.232280 16.013400 -28.551200 1.002805 1.634016 -0.138352
lowerback -1.219981 2.363475 3.736832
upperback -2.902209 3.239483 1.891239
thorax -2.069027 1.562126 -0.154928
lowerneck -16.802500 0.882746 1.537914
upperneck 38.193180 2.496175 -3.857541
head 17.257910 0.778081 -1.598776
rclavicle -0.000000 0.000000
rhumerus -35.066172 -10.168256 -73.349216
rradius 31.283457
rwrist -14.054786
rhand -6.826627 12.106114
rfingers 7.125020
rthumb 19.032865 -16.890986
lclavicle -0.000000 0.000000
lhumerus -59.688232 33.392537 50.988844
lradius 21.230259
lwrist -15.248889
lhand 2.052979 20.939607
lfingers 7.125020
lthumb 27.544081 48.760582
rfemur -10.075980 14.457594 27.895213
rtibia 22.578834
rfoot -18.808476 -19.920765
rtoes -2.539031
lfemur -36.494287 -0.836832 -18.328878
ltibia 42.308178
lfoot -18.462999 16.297909
ltoes -15.573047
21
root 9.239730 15.970900 -28.241000 0.807098 1.634016 -0.156914
lowerback -1.109850 2.440128 3.591781
upperback -2.531795 3.345440 1.806347
thorax -1.787565 1.624694 -0.097802
lowerneck -16.777810 0.783179 1.370207
upperneck 37.897546 2.416759 -3.875216
head 17.074725 0.717145 -1.579995
rclavicle -0.000000 0.000000
rhumerus -33.981512 -10.143878 -73.059123
rradius 32.151144
rwrist -15.149594
rhand -7.114769 12.268191
rfingers 7.125020
rthumb 18.753345 -16.759248
lclavicle -0.000000 0.000000
lhumerus -59.148704 33.458346 51.283819
lradius 21.578007
lwrist -14.414227
lhand 1.817813 20.757479
lfingers 7.125020
lthumb 27.318415 48.625331
rfemur -5.908084 14.133377 28.371725
rtibia 19.927118
rfoot -17.541356 -20.638745
rtoes -1.897682
lfemur -36.964817 -2.603586 -17.602468
ltibia 35.219381
lfoot -18.689709 16.599367
ltoes -16.171044
22
root 9.241850 15.946000 -27.925100 0.638023 1.634016 -0.182269
lowerback -0.992773 2.522232 3.529672
upperback -2.153694 3.466151 1.731902
thorax -1.503080 1.693958 -0.036219
lowerneck -16.740947 0.679609 1.185392
upperneck 37.596522 2.332270 -3.893458
head 16.887696 0.653589 -1.555278
rclavicle -0.000000 0.000000
rhumerus -32.869905 -10.115003 -72.767237
rradius 33.044120
rwrist -16.250661
rhand -7.415195 12.431377
rfingers 7.125020
rthumb 18.461933 -16.635198
lclavicle -0.000000 0.000000
lhumerus -58.532189 33.515854 51.617882
lradius 21.960535
lwrist -13.501873
lhand 1.569182 20.598641
lfingers 7.125020
lthumb 27.079962 48.514804
rfemur -1.620252 13.786178 28.930631
rtibia 16.607557
rfoot -16.087092 -21.335499
rtoes -1.320436
lfemur -37.431012 -4.522683 -16.693526
ltibia 27.796976
lfoot -18.867546 16.990277
ltoes -16.793234
23
root 9.242890 15.925900 -27.604900 0.812272 1.634016 -0.048367
lowerback -1.270265 2.628984 4.101926
upperback -2.177974 3.602714 1.730707
thorax -1.373596 1.756150 -0.219459
lowerneck -16.753868 0.657448 1.039345
upperneck 37.706510 2.228805 -3.583755
head 16.955593 0.634383 -1.407977
rclavicle -0.000000 0.000000
rhumerus -32.919331 -10.647455 -72.537043
rradius 32.319709
rwrist -15.163867
rhand -7.616985 12.577482
rfingers 7.125020
rthumb 18.267849 -16.514093
lclavicle -0.000000 0.000000
lhumerus -57.461726 33.157634 52.203957
lradius 23.024324
lwrist -11.060263
lhand 0.151564 20.992297
lfingers 7.125020
lthumb 25.720225 49.112252
rfemur 2.439446 13.241225 29.668851
rtibia 11.928054
rfoot -13.631117 -20.352188
rtoes -4.369884
lfemur -37.434735 -7.058211 -14.545758
ltibia 26.377089
lfoot -19.253763 17.942698
ltoes -14.193392
24
root 9.243090 15.943100 -27.273700 0.940163 1.634016 0.017949
lowerback -1.541605 2.716713 4.404099
upperback -2.205777 3.701274 1.713048
thorax -1.252692 1.801534 -0.384145
lowerneck -16.761166 0.636346 0.897925
upperneck 37.809223 2.127750 -3.286773
head 17.019843 0.615969 -1.265912
rclavicle -0.000000 0.000000
rhumerus -32.980246 -11.158847 -72.332078
rradius 31.660322
rwrist -14.112829
rhand -7.816409 12.712463
rfingers 7.125020
rthumb 18.075975 -16.403338
lclavicle -0.000000 0.000000
lhumerus -56.450402 32.809724 52.766371
lradius 24.012015
lwrist -8.845511
lhand -1.238838 21.378037
lfingers 7.125020
lthumb 24.386378 49.698096
rfemur 5.915106 12.714989 30.204534
rtibia 9.365262
rfoot -11.936609 -19.392585
rtoes -7.009178
lfemur -37.388816 -8.482249 -13.153818
ltibia 25.794996
lfoot -19.428445 18.379428
ltoes -12.398937
25
root 9.241190 15.944900 -26.946700 1.056243 1.634016 0.071158
lowerback -1.811213 2.792190 4.571026
upperback -2.238066 3.777544 1.678004
thorax -1.137218 1.836743 -0.544284
lowerneck -16.763107 0.615876 0.756154
upperneck 37.905775 2.026330 -2.982972
head 17.081205 0.597917 -1.119939
rclavicle -0.000000 0.000000
rhumerus -33.054024 -11.659242 -72.145332
rradius 31.031534
rwrist -13.066427
rhand -8.016324 12.841533
rfingers 7.125020
rthumb 17.883561 -16.298213
lclavicle -0.000000 0.000000
lhumerus -55.463764 32.466752 53.312652
lradius 24.955389
lwrist -6.735410
lhand -2.626930 21.761218
lfingers 7.125020
lthumb 23.054562 50.280352
rfemur 9.088807 12.191691 30.603939
rtibia 7.941428
rfoot -10.581285 -18.436013
rtoes -9.494525
lfemur -37.289340 -9.278441 -12.254564
ltibia 25.734587
lfoot -19.432717 18.546245
ltoes -10.686898
